<svg display="none" width="0" height="0" version="1.1" xmlns="http://www.w3.org/2000/svg" xmlns:xlink="http://www.w3.org/1999/xlink">
    <defs>
        <symbol id="setka-editor-logo-black-white" viewBox="0 0 140 26" version="1.1" xmlns="http://www.w3.org/2000/svg" xmlns:xlink="http://www.w3.org/1999/xlink">
            <defs>
                <polygon id="path-1" points="0.673105263 0.289636364 9.16766667 0.289636364 9.16766667 21.5258727 0.673105263 21.5258727 0.673105263 0.289636364"></polygon>
                <polygon id="path-3" points="0 26.7108545 139.522281 26.7108545 139.522281 1.22776364 0 1.22776364"></polygon>
            </defs>
            <g id="Page-1" stroke="none" stroke-width="1" fill="none" fill-rule="evenodd" opacity="0.5">
                <g id="front" transform="translate(-1130.000000, -2018.000000)">
                    <g id="Page-1" transform="translate(1130.000000, 2017.000000)">
                        <polygon id="Fill-1" fill-opacity="0.3" fill="#FFFFFF" points="58.9117544 22.4632636 75.9008772 22.4632636 75.9008772 5.47412727 58.9117544 5.47412727"></polygon>
                        <g id="Group-5" transform="translate(54.035088, 0.938127)">
                            <mask id="mask-2" fill="white">
                                <use xlink:href="#path-1"></use>
                            </mask>
                            <g id="Clip-4"></g>
                            <path d="M4.921,0.289145455 C2.57538596,0.289145455 0.673105263,2.19019091 0.673105263,4.53673636 C0.673105263,6.59119091 2.13205263,8.30446364 4.07117544,8.69841818 L4.07117544,21.5258727 L5.76959649,21.5258727 L5.76959649,8.69841818 C7.7087193,8.30446364 9.16766667,6.59119091 9.16766667,4.53673636 C9.16766667,2.19019091 7.26661404,0.289145455 4.921,0.289145455" id="Fill-3" fill="#FFFFFF" mask="url(#mask-2)"></path>
                        </g>
                        <path d="M76.7942982,18.3012136 L76.7942982,5.47498636 L75.0946491,5.47498636 L75.0946491,18.3012136 C73.1567544,18.6951682 71.697807,20.4084409 71.697807,22.4641227 C71.697807,24.8094409 73.5976316,26.7104864 75.9444737,26.7104864 C78.2900877,26.7104864 80.1923684,24.8094409 80.1923684,22.4641227 C80.1923684,20.4084409 78.732193,18.6951682 76.7942982,18.3012136" id="Fill-6" fill="#FFFFFF"></path>
                        <path d="M63.115193,15.7040591 L66.0834386,15.7040591 C66.1915088,16.38765 66.4972982,16.7644227 67.4158947,16.7644227 C68.2067719,16.7644227 68.5665965,16.4588318 68.5665965,15.9912409 C68.5665965,15.5420591 68.1171228,15.3260591 66.8227368,15.1468773 C64.3027368,14.8228773 63.2416842,14.0865136 63.2416842,12.1253318 C63.2416842,10.0401955 65.093614,9.03383182 67.2709825,9.03383182 C69.5920351,9.03383182 71.2118596,9.82419545 71.428,12.0725591 L68.5137895,12.0725591 C68.3872982,11.4429682 68.0458947,11.1373773 67.3078246,11.1373773 C66.6053684,11.1373773 66.2455439,11.4429682 66.2455439,11.8737409 C66.2455439,12.32415 66.6765965,12.5045591 67.8297544,12.64815 C70.4381754,12.9709227 71.6969474,13.6545136 71.6969474,15.6684682 C71.6969474,17.8984227 70.0427368,18.9047864 67.4330877,18.9047864 C64.7522105,18.9047864 63.1876491,17.7891955 63.115193,15.7040591" id="Fill-8" fill="#FFFFFF"></path>
                        <path d="M87.3420702,12.8786318 C87.5213684,11.6292682 88.2545263,10.9358591 89.3254035,10.9358591 C90.4761053,10.9358591 91.0913684,11.6292682 91.1515439,12.8786318 L87.3420702,12.8786318 Z M89.3254035,8.59667727 C86.1913684,8.59667727 83.7131228,10.6977682 83.7131228,14.0285864 L83.7131228,14.1869045 C83.7131228,17.5766318 86.0918947,19.4789045 89.3462807,19.4789045 C92.4803158,19.4789045 94.2843509,18.1509955 94.6024211,15.8130409 L91.2694386,15.8130409 C91.1306667,16.50645 90.6357544,17.0415409 89.4654035,17.0415409 C88.1943509,17.0415409 87.4022456,16.2487227 87.3027719,14.8803136 L94.6024211,14.8803136 L94.6024211,13.9488136 C94.6024211,10.2228136 92.1622456,8.59667727 89.3254035,8.59667727 L89.3254035,8.59667727 Z" id="Fill-10" fill="#FFFFFF"></path>
                        <path d="M103.139105,14.1076227 C103.139105,15.8712136 102.345772,16.7634409 101.057526,16.7634409 C99.827,16.7634409 99.0533158,15.8712136 99.0533158,14.1272591 L99.0533158,13.9689409 C99.0533158,12.16485 99.7680526,11.2726227 101.096825,11.2726227 C102.405947,11.2726227 103.139105,12.2041227 103.139105,13.9493045 L103.139105,14.1076227 Z M103.04086,10.3411227 C102.446474,9.29057727 101.473842,8.59716818 99.8466491,8.59716818 C97.3868246,8.59716818 95.4427895,10.4798045 95.4427895,14.0082136 L95.4427895,14.1665318 C95.4427895,17.7550773 97.4077018,19.4793955 99.8073509,19.4793955 C101.374368,19.4793955 102.52507,18.6276682 103.04086,17.5562591 L103.04086,19.2413045 L106.591211,19.2413045 L106.591211,5.32648636 L103.04086,5.32648636 L103.04086,10.3411227 Z" id="Fill-12" fill="#FFFFFF"></path>
                        <mask id="mask-4" fill="white">
                            <use xlink:href="#path-3"></use>
                        </mask>
                        <g id="Clip-15"></g>
                        <polygon id="Fill-14" fill="#FFFFFF" mask="url(#mask-4)" points="107.786491 19.2416727 111.336842 19.2416727 111.336842 8.8749 107.786491 8.8749"></polygon>
                        <path d="M109.551596,4.21641818 C108.441421,4.21641818 107.607561,5.00923636 107.607561,6.05978182 C107.607561,7.11032727 108.441421,7.88350909 109.551596,7.88350909 C110.661772,7.88350909 111.515281,7.11032727 111.515281,6.05978182 C111.515281,5.00923636 110.661772,4.21641818 109.551596,4.21641818" id="Fill-16" fill="#FFFFFF" mask="url(#mask-4)"></path>
                        <path d="M128.142982,14.1275045 C128.142982,15.8518227 127.428246,16.8434591 126.099474,16.8434591 C124.731404,16.8434591 124.036316,15.8714591 124.036316,14.0882318 L124.036316,13.9286864 C124.036316,12.1847318 124.770702,11.2532318 126.099474,11.2532318 C127.449123,11.2532318 128.142982,12.2240045 128.142982,13.9691864 L128.142982,14.1275045 Z M126.099474,8.59741364 C122.886842,8.59741364 120.407368,10.6985045 120.407368,14.0280955 L120.407368,14.1864136 C120.407368,17.5368682 122.886842,19.4796409 126.079825,19.4796409 C129.272807,19.4796409 131.752281,17.4570955 131.752281,14.0882318 L131.752281,13.9286864 C131.752281,10.6383682 129.293684,8.59741364 126.099474,8.59741364 L126.099474,8.59741364 Z" id="Fill-17" fill="#FFFFFF" mask="url(#mask-4)"></path>
                        <path d="M136.169772,10.9358591 L136.169772,8.87404091 L132.618193,8.87404091 L132.618193,19.2420409 L136.169772,19.2420409 L136.169772,14.3255864 C136.169772,12.6601773 137.359772,11.9864045 139.521175,12.0465409 L139.521175,8.73658636 C137.91486,8.71572273 136.824333,9.38949545 136.169772,10.9358591" id="Fill-18" fill="#FFFFFF" mask="url(#mask-4)"></path>
                        <path d="M116.081737,5.32624091 L112.531386,5.32624091 L112.531386,9.49896818 L112.531386,9.52474091 L112.531386,15.6930136 C112.531386,17.6529682 114.120509,19.2410591 116.081737,19.2410591 L119.633316,19.2410591 L119.633316,15.6930136 L116.445246,15.6930136 C116.24507,15.6930136 116.081737,15.5310136 116.081737,15.3309682 L116.081737,12.4223318 L119.633316,12.4223318 L119.633316,8.87428636 L116.081737,8.87428636 L116.081737,5.32624091 Z" id="Fill-19" fill="#FFFFFF" mask="url(#mask-4)"></path>
                        <path d="M5.19682456,12.5508273 C3.927,12.3925091 3.45173684,12.1936909 3.45173684,11.6978727 C3.45173684,11.2216909 3.84717544,10.8854182 4.62085965,10.8854182 C5.43384211,10.8854182 5.81208772,11.2216909 5.94963158,11.9163273 L9.16349123,11.9163273 C8.92524561,9.43846364 7.14085965,8.56587273 4.5815614,8.56587273 C2.18191228,8.56587273 0.138403509,9.67655455 0.138403509,11.9752364 C0.138403509,14.1364636 1.30875439,14.9489182 4.08664912,15.3060545 C5.51489474,15.5036455 6.00980702,15.7417364 6.00980702,16.2375545 C6.00980702,16.7530091 5.61314035,17.0892818 4.74121053,17.0892818 C3.7292807,17.0892818 3.3915614,16.6732364 3.27366667,15.9209182 L0.000859649123,15.9209182 C0.0794561404,18.2196 1.80489474,19.4493273 4.76085965,19.4493273 C7.63577193,19.4493273 9.46191228,18.3386455 9.46191228,15.8804182 C9.46191228,13.6602818 8.07296491,12.9079636 5.19682456,12.5508273" id="Fill-20" fill="#FFFFFF" mask="url(#mask-4)"></path>
                        <path d="M13.734614,12.8480727 C13.9139123,11.5987091 14.6470702,10.9053 15.7179474,10.9053 C16.8698772,10.9053 17.4839123,11.5987091 17.5440877,12.8480727 L13.734614,12.8480727 Z M15.7179474,8.56611818 C12.5839123,8.56611818 10.1056667,10.6672091 10.1056667,13.9980273 L10.1056667,14.1563455 C10.1056667,17.5460727 12.4844386,19.4483455 15.7388246,19.4483455 C18.8728596,19.4483455 20.6768947,18.1204364 20.9949649,15.7812545 L17.6619825,15.7812545 C17.5232105,16.4758909 17.0282982,17.0109818 15.8579474,17.0109818 C14.5868947,17.0109818 13.7947895,16.2181636 13.6953158,14.8497545 L20.9949649,14.8497545 L20.9949649,13.9182545 C20.9949649,10.1910273 18.5547895,8.56611818 15.7179474,8.56611818 L15.7179474,8.56611818 Z" id="Fill-21" fill="#FFFFFF" mask="url(#mask-4)"></path>
                        <polygon id="Fill-22" fill="#FFFFFF" mask="url(#mask-4)" points="40.3299474 8.84385 36.385386 8.84385 33.5890702 13.1601682 33.5890702 5.29580455 30.0387193 5.29580455 30.0387193 19.2106227 33.5890702 19.2106227 33.5890702 14.8832591 36.385386 19.2106227 40.3532807 19.2106227 36.7685439 13.9689409"></polygon>
                        <path d="M47.0040175,14.0770636 C47.0040175,15.8406545 46.1910351,16.7328818 45.0010351,16.7328818 C43.8306842,16.7328818 43.0778772,15.8406545 43.0778772,14.0967 L43.0778772,13.9383818 C43.0778772,12.1342909 43.8110351,11.2420636 45.0612105,11.2420636 C46.2512105,11.2420636 47.0040175,12.1146545 47.0040175,13.9187455 L47.0040175,14.0770636 Z M46.9057719,8.84397273 L46.9057719,10.2909273 C46.311386,9.24038182 45.3780526,8.56660909 43.8110351,8.56660909 C41.4899825,8.56660909 39.4673509,10.4492455 39.4673509,13.9776545 L39.4673509,14.1359727 C39.4673509,17.7245182 41.4899825,19.4488364 43.791386,19.4488364 C45.2785789,19.4488364 46.3691053,18.5958818 46.9057719,17.5453364 L46.9057719,19.2107455 L50.4561228,19.2107455 L50.4561228,8.84397273 L46.9057719,8.84397273 Z" id="Fill-23" fill="#FFFFFF" mask="url(#mask-4)"></path>
                        <path d="M25.466,5.29568182 L21.9144211,5.29568182 L21.9144211,9.46840909 L21.9144211,9.49418182 L21.9144211,15.6624545 C21.9144211,17.6224091 23.5047719,19.2105 25.466,19.2105 L29.0175789,19.2105 L29.0175789,15.6624545 L26.061614,15.6624545 C25.7337193,15.6624545 25.466,15.3961364 25.466,15.066 L25.466,12.3917727 L29.0175789,12.3917727 L29.0175789,8.84372727 L25.466,8.84372727 L25.466,5.29568182 Z" id="Fill-24" fill="#FFFFFF" mask="url(#mask-4)"></path>
                    </g>
                </g>
            </g>
        </symbol>


        <symbol id="setka-editor-logo-color" viewBox="0 0 140 26" version="1.1" xmlns="http://www.w3.org/2000/svg" xmlns:xlink="http://www.w3.org/1999/xlink">
            <defs>
                <polygon id="path-1" points="0 25.7083048 139.522281 25.7083048 139.522281 0.000495238095 0 0.000495238095"></polygon>
            </defs>
            <g id="Page-1" stroke="none" stroke-width="1" fill="none" fill-rule="evenodd">
                <g id="post-/-hovers" transform="translate(-1130.000000, -1994.000000)">
                    <g id="Page-1" transform="translate(1130.000000, 1994.000000)">
                        <path d="M87.342807,11.7534857 L91.1510526,11.7534857 C91.0921053,10.4931048 90.4768421,9.79358095 89.3261404,9.79358095 C88.2540351,9.79358095 87.5221053,10.4931048 87.342807,11.7534857 Z M89.3261404,7.43377143 C92.1629825,7.43377143 94.6019298,9.07424762 94.6019298,12.8343429 L94.6019298,13.772819 L87.3035088,13.772819 C87.4017544,15.1532952 88.1950877,15.9531048 89.4649123,15.9531048 C90.6352632,15.9531048 91.1314035,15.4132952 91.2689474,14.7137714 L94.6019298,14.7137714 C94.2838596,17.0723429 92.4798246,18.4119619 89.3457895,18.4119619 C86.0926316,18.4119619 83.7126316,16.4929143 83.7126316,13.0732952 L83.7126316,12.913581 C83.7126316,9.55462857 86.1921053,7.43377143 89.3261404,7.43377143 Z" id="Fill-1" fill="#FFFFFF"></path>
                        <path d="M103.139842,12.9934381 C103.139842,14.772581 102.346509,15.6739143 101.057035,15.6739143 C99.8277368,15.6739143 99.0540526,14.772581 99.0540526,13.0132476 L99.0540526,12.8535333 C99.0540526,11.0335333 99.7675614,10.1334381 101.096333,10.1334381 C102.405456,10.1334381 103.139842,11.0743905 103.139842,12.8337238 L103.139842,12.9934381 Z M103.040368,9.19372381 C102.445982,8.13391429 101.474579,7.43439048 99.8461579,7.43439048 C97.3875614,7.43439048 95.4435263,9.33362857 95.4435263,12.8931524 L95.4435263,13.0528667 C95.4435263,16.6730571 97.4072105,18.412581 99.8068596,18.412581 C101.375105,18.412581 102.524579,17.5533429 103.040368,16.4737238 L103.040368,18.1723905 L106.591947,18.1723905 L106.591947,4.13486667 L103.040368,4.13486667 L103.040368,9.19372381 Z" id="Fill-3" fill="#FFFFFF"></path>
                        <mask id="mask-2" fill="white">
                            <use xlink:href="#path-1"></use>
                        </mask>
                        <g id="Clip-6"></g>
                        <polygon id="Fill-5" fill="#FFFFFF" mask="url(#mask-2)" points="107.785263 18.172019 111.336842 18.172019 111.336842 7.71382857 107.785263 7.71382857"></polygon>
                        <path d="M109.551228,3.01488571 C108.441053,3.01488571 107.607193,3.81469524 107.607193,4.87450476 C107.607193,5.93431429 108.441053,6.71431429 109.551228,6.71431429 C110.661404,6.71431429 111.514912,5.93431429 111.514912,4.87450476 C111.514912,3.81469524 110.661404,3.01488571 109.551228,3.01488571" id="Fill-7" fill="#FFFFFF" mask="url(#mask-2)"></path>
                        <path d="M128.142491,13.0133714 C128.142491,14.7528952 127.428982,15.7532762 126.100211,15.7532762 C124.730912,15.7532762 124.037053,14.7727048 124.037053,12.9737524 L124.037053,12.8140381 C124.037053,11.0534667 124.770211,10.1137524 126.100211,10.1137524 C127.448632,10.1137524 128.142491,11.0943238 128.142491,12.8536571 L128.142491,13.0133714 Z M126.100211,7.43451429 C122.886351,7.43451429 120.406877,9.55413333 120.406877,12.9130857 L120.406877,13.0740381 C120.406877,16.4528 122.886351,18.4127048 126.079333,18.4127048 C129.273544,18.4127048 131.751789,16.3723238 131.751789,12.9737524 L131.751789,12.8140381 C131.751789,9.49470476 129.293193,7.43451429 126.100211,7.43451429 L126.100211,7.43451429 Z" id="Fill-8" fill="#FFFFFF" mask="url(#mask-2)"></path>
                        <path d="M136.169404,9.7942 L136.169404,7.7142 L132.619053,7.7142 L132.619053,18.1723905 L136.169404,18.1723905 L136.169404,13.213819 C136.169404,11.5337238 137.360632,10.8540095 139.520807,10.9134381 L139.520807,7.57429524 C137.915719,7.55448571 136.823965,8.2342 136.169404,9.7942" id="Fill-9" fill="#FFFFFF" mask="url(#mask-2)"></path>
                        <path d="M116.082474,4.13511429 L112.530895,4.13511429 L112.530895,8.3446381 L112.530895,8.3706381 L112.530895,14.5933048 C112.530895,16.5705429 114.121246,18.1726381 116.082474,18.1726381 L119.632825,18.1726381 L119.632825,14.5933048 L116.444754,14.5933048 C116.244579,14.5933048 116.082474,14.4298762 116.082474,14.2280667 L116.082474,11.293781 L119.632825,11.293781 L119.632825,7.71444762 L116.082474,7.71444762 L116.082474,4.13511429 Z" id="Fill-10" fill="#FFFFFF" mask="url(#mask-2)"></path>
                        <path d="M5.19645614,11.4227905 C3.92785965,11.2630762 3.45136842,11.0625048 3.45136842,10.5635524 C3.45136842,10.0831714 3.84803509,9.74269524 4.6217193,9.74269524 C5.43470175,9.74269524 5.8117193,10.0831714 5.95049123,10.7826952 L9.16312281,10.7826952 C8.92610526,8.28298095 7.14049123,7.40269524 4.58242105,7.40269524 C2.18154386,7.40269524 0.139263158,8.52317143 0.139263158,10.8433619 C0.139263158,13.0224095 1.30961404,13.8420286 4.0862807,14.2023143 C5.51452632,14.4028857 6.0094386,14.6430762 6.0094386,15.1420286 C6.0094386,15.6620286 5.614,16.0025048 4.74084211,16.0025048 C3.72891228,16.0025048 3.39119298,15.5815524 3.27329825,14.8226 L0.00049122807,14.8226 C0.0790877193,17.1415524 1.80452632,18.3821238 4.7617193,18.3821238 C7.63663158,18.3821238 9.46154386,17.2616476 9.46154386,14.7817429 C9.46154386,12.5420286 8.07382456,11.7830762 5.19645614,11.4227905" id="Fill-11" fill="#FFFFFF" mask="url(#mask-2)"></path>
                        <path d="M13.7353509,11.7226571 C13.9146491,10.4622762 14.6465789,9.76275238 15.7186842,9.76275238 C16.869386,9.76275238 17.4846491,10.4622762 17.5435965,11.7226571 L13.7353509,11.7226571 Z M15.7186842,7.40294286 C12.5846491,7.40294286 10.1051754,9.5225619 10.1051754,12.8827524 L10.1051754,13.0424667 C10.1051754,16.4620857 12.4851754,18.3811333 15.7383333,18.3811333 C18.8723684,18.3811333 20.6764035,17.0415143 20.9944737,14.6829429 L17.6614912,14.6829429 C17.5239474,15.3824667 17.027807,15.9222762 15.8574561,15.9222762 C14.5876316,15.9222762 13.7942982,15.1224667 13.6960526,13.7419905 L20.9944737,13.7419905 L20.9944737,12.8022762 C20.9944737,9.04341905 18.5555263,7.40294286 15.7186842,7.40294286 L15.7186842,7.40294286 Z" id="Fill-12" fill="#FFFFFF" mask="url(#mask-2)"></path>
                        <polygon id="Fill-13" fill="#FFFFFF" mask="url(#mask-2)" points="40.3306842 7.68312381 36.3861228 7.68312381 33.589807 12.0375048 33.589807 4.10379048 30.0382281 4.10379048 30.0382281 18.1413143 33.589807 18.1413143 33.589807 13.7770286 36.3861228 18.1413143 40.3540175 18.1413143 36.7692807 12.8534095"></polygon>
                        <path d="M47.0047544,12.9626095 C47.0047544,14.7417524 46.1917719,15.6418476 45.0005439,15.6418476 C43.8314211,15.6418476 43.077386,14.7417524 43.077386,12.982419 L43.077386,12.8227048 C43.077386,11.0027048 43.8105439,10.1026095 45.0607193,10.1026095 C46.2507193,10.1026095 47.0047544,10.9828952 47.0047544,12.8028952 L47.0047544,12.9626095 Z M46.9052807,7.68337143 L46.9052807,9.14308571 C46.3108947,8.08327619 45.3787895,7.4035619 43.8105439,7.4035619 C41.4907193,7.4035619 39.4668596,9.3028 39.4668596,12.8623238 L39.4668596,13.0220381 C39.4668596,16.6422286 41.4907193,18.3817524 43.7908947,18.3817524 C45.2793158,18.3817524 46.3698421,17.5225143 46.9052807,16.4627048 L46.9052807,18.1415619 L50.4568596,18.1415619 L50.4568596,7.68337143 L46.9052807,7.68337143 Z" id="Fill-14" fill="#FFFFFF" mask="url(#mask-2)"></path>
                        <path d="M25.4655088,4.10366667 L21.9151579,4.10366667 L21.9151579,8.31319048 L21.9151579,8.33919048 L21.9151579,14.5618571 C21.9151579,16.5390952 23.5042807,18.1411905 25.4655088,18.1411905 L29.0170877,18.1411905 L29.0170877,14.5618571 L26.0623509,14.5618571 C25.7332281,14.5618571 25.4655088,14.2931905 25.4655088,13.961381 L25.4655088,11.2623333 L29.0170877,11.2623333 L29.0170877,7.683 L25.4655088,7.683 L25.4655088,4.10366667 Z" id="Fill-15" fill="#FFFFFF" mask="url(#mask-2)"></path>
                        <polygon id="Fill-16" fill="#00008E" mask="url(#mask-2)" points="58.8982456 21.4232571 75.8873684 21.4232571 75.8873684 4.28430476 58.8982456 4.28430476"></polygon>
                        <path d="M58.9424561,0.000123809524 C56.5968421,0.000123809524 54.6945614,1.91793333 54.6945614,4.28393333 C54.6945614,6.35774286 56.1535088,8.08612381 58.0926316,8.48355238 L58.0926316,21.4241238 L59.7910526,21.4241238 L59.7910526,8.48355238 C61.7301754,8.08612381 63.1891228,6.35774286 63.1891228,4.28393333 C63.1891228,1.91793333 61.2868421,0.000123809524 58.9424561,0.000123809524" id="Fill-17" fill="#4A00FF" mask="url(#mask-2)"></path>
                        <path d="M76.7806667,17.2246286 L76.7806667,4.28405714 L75.0810175,4.28405714 L75.0810175,17.2246286 C73.1431228,17.6220571 71.6841754,19.3504381 71.6841754,21.4242476 C71.6841754,23.7902476 73.584,25.7080571 75.9308421,25.7080571 C78.2764561,25.7080571 80.1787368,23.7902476 80.1787368,21.4242476 C80.1787368,19.3504381 78.7185614,17.6220571 76.7806667,17.2246286" id="Fill-18" fill="#4A00FF" mask="url(#mask-2)"></path>
                        <path d="M63.1015614,14.6045714 L66.069807,14.6045714 C66.1778772,15.2941905 66.4836667,15.6742857 67.4010351,15.6742857 C68.1931404,15.6742857 68.5529649,15.366 68.5529649,14.8942857 C68.5529649,14.4411429 68.1022632,14.2232381 66.8078772,14.0424762 C64.2891053,13.715619 63.2280526,12.9727619 63.2280526,10.9942857 C63.2280526,8.8907619 65.0799825,7.87552381 67.2573509,7.87552381 C69.5784035,7.87552381 71.1982281,8.67285714 71.4143684,10.9410476 L68.5001579,10.9410476 C68.3724386,10.3059048 68.0310351,9.99761905 67.2929649,9.99761905 C66.5917368,9.99761905 66.2319123,10.3059048 66.2319123,10.7404762 C66.2319123,11.1948571 66.6629649,11.375619 67.8148947,11.5204762 C70.4245439,11.8473333 71.6833158,12.5369524 71.6833158,14.5686667 C71.6833158,16.8170476 70.0291053,17.8335238 67.4194561,17.8335238 C64.7385789,17.8335238 63.1740175,16.7080952 63.1015614,14.6045714" id="Fill-19" fill="#B3F8FF" mask="url(#mask-2)"></path>
                    </g>
                </g>
            </g>
        </symbol>
    </defs>
</svg>